# xmcd CD database file
#
# Track frame offsets:
#	150
#	18985
#	36980
#	51305
#	64452
#	79095
#	99505
#	114642
#	132440
#	148505
#	162150
#	175495
#
# Disc length: 2547 seconds
#
# Revision: 0
# Processed by: cddbd v1.5.2PL0 Copyright (c) Steve Scherf et al.
# Submitted via: CDex 1.51
#
DISCID=ab09f10c
DTITLE=Western Starlights - Truckerleben
DYEAR=1900
DGENRE=Country
TTITLE0=Der Highway und das Cockpit
TTITLE1=German Trucker
TTITLE2=Das Leben ist ein Rodeo
TTITLE3=Tu was du willst
TTITLE4=Freunde der Strasse
TTITLE5=Wo ist die Country Lady?
TTITLE6=Ein Trucker steht am Himmelstor
TTITLE7=Fahre gegen den Wind
TTITLE8=Du lacjst, wenn du aufstehst
TTITLE9=Rock'n Roll und country music
TTITLE10=Country Music
TTITLE11=Trink nie auf jedes Mädchen
EXTD=
EXTT0=
EXTT1=
EXTT2=
EXTT3=
EXTT4=
EXTT5=
EXTT6=
EXTT7=
EXTT8=
EXTT9=
EXTT10=
EXTT11=
PLAYORDER=
